<svg xmlns="http://www.w3.org/2000/svg" viewBox="0 0 862 679"><polygon points="18,18 511,18 511,154 550,154 550,538 18,538" fill="#F4F1E8"/><polygon points="550,394 691,489 850,489 850,667 550,667" fill="#DCE2D6"/><polygon points="537,30 655,30 655,154 537,154" fill="#F4F1E8"/><clipPath id="bad1"><polygon points="550,394 691,489 850,489 850,667 550,667"/></clipPath><g clip-path="url(#bad1)" stroke="#1A1A18" stroke-width="0.35" opacity="0.5"><line x1="560" y1="394" x2="560" y2="667"/><line x1="580" y1="394" x2="580" y2="667"/><line x1="600" y1="394" x2="600" y2="667"/><line x1="620" y1="394" x2="620" y2="667"/><line x1="640" y1="394" x2="640" y2="667"/><line x1="660" y1="394" x2="660" y2="667"/><line x1="680" y1="394" x2="680" y2="667"/><line x1="700" y1="394" x2="700" y2="667"/><line x1="720" y1="394" x2="720" y2="667"/><line x1="740" y1="394" x2="740" y2="667"/><line x1="760" y1="394" x2="760" y2="667"/><line x1="780" y1="394" x2="780" y2="667"/><line x1="800" y1="394" x2="800" y2="667"/><line x1="820" y1="394" x2="820" y2="667"/><line x1="840" y1="394" x2="840" y2="667"/><line x1="550" y1="400" x2="850" y2="400"/><line x1="550" y1="420" x2="850" y2="420"/><line x1="550" y1="440" x2="850" y2="440"/><line x1="550" y1="460" x2="850" y2="460"/><line x1="550" y1="480" x2="850" y2="480"/><line x1="550" y1="500" x2="850" y2="500"/><line x1="550" y1="520" x2="850" y2="520"/><line x1="550" y1="540" x2="850" y2="540"/><line x1="550" y1="560" x2="850" y2="560"/><line x1="550" y1="580" x2="850" y2="580"/><line x1="550" y1="600" x2="850" y2="600"/><line x1="550" y1="620" x2="850" y2="620"/><line x1="550" y1="640" x2="850" y2="640"/><line x1="550" y1="660" x2="850" y2="660"/></g><path d="M 0 0 L 525 0 L 525 8 L 670 8 L 670 166 L 562 166 L 562 382 L 686 481 L 862 481 L 862 679 L 538 679 L 538 556 L 0 556 Z M 18 18 L 511 18 L 511 154 L 550 154 L 550 538 L 18 538 Z M 550 394 L 691 489 L 850 489 L 850 667 L 550 667 Z M 537 30 L 655 30 L 655 154 L 537 154 Z" fill="#1A1A18" fill-rule="evenodd"/><rect x="18" y="0" width="90" height="18" fill="#F4F1E8"/><line x1="18" y1="18" x2="18" y2="108" stroke="#1A1A18" stroke-width="3"/><path d="M 18 108 A 90 90 0 0 0 108 18" fill="none" stroke="#1A1A18" stroke-width="0.8"/><rect x="511" y="193" width="39" height="77" fill="#F4F1E8"/><line x1="511" y1="270" x2="511" y2="193" stroke="#1A1A18" stroke-width="3"/><path d="M 511 193 A 77 77 0 0 1 588 270" fill="none" stroke="#1A1A18" stroke-width="0.8"/><rect x="582" y="154" width="58" height="12" fill="#F4F1E8"/><line x1="640" y1="154" x2="582" y2="154" stroke="#1A1A18" stroke-width="3"/><path d="M 582 154 A 58 58 0 0 0 640 212" fill="none" stroke="#1A1A18" stroke-width="0.8"/><rect x="538" y="420" width="12" height="76" fill="#F4F1E8"/><line x1="550" y1="496" x2="626" y2="496" stroke="#1A1A18" stroke-width="3"/><path d="M 626 496 A 76 76 0 0 0 550 420" fill="none" stroke="#1A1A18" stroke-width="0.8"/><rect x="0" y="105" width="18" height="122" fill="#FBFAF6"/><line x1="4" y1="105" x2="4" y2="227" stroke="#1A1A18" stroke-width="2"/><line x1="14" y1="105" x2="14" y2="227" stroke="#1A1A18" stroke-width="2"/><rect x="0" y="337" width="18" height="110" fill="#FBFAF6"/><line x1="4" y1="337" x2="4" y2="447" stroke="#1A1A18" stroke-width="2"/><line x1="14" y1="337" x2="14" y2="447" stroke="#1A1A18" stroke-width="2"/><rect x="0" y="450" width="18" height="90" fill="#FBFAF6"/><line x1="4" y1="450" x2="4" y2="540" stroke="#1A1A18" stroke-width="2"/><line x1="14" y1="450" x2="14" y2="540" stroke="#1A1A18" stroke-width="2"/><use href="#servant" transform="translate(576 38)"/><use href="#wc" transform="translate(585 575)"/><use href="#servant" transform="translate(640 540)"/><use href="#kvask" transform="translate(386 28)"/><use href="#bord2" transform="translate(75 100)"/><use href="#sofa" transform="translate(35 290)"/><use href="#sofabord60" transform="translate(215 295)"/><use href="#lenestol" transform="translate(90 420) rotate(45)"/><use href="#lenestol" transform="translate(220 420) rotate(45)"/><rect x="40" y="24" width="320" height="62" fill="none" stroke="#1A1A18" stroke-width="1"/><rect x="360" y="24" width="151" height="62" fill="none" stroke="#1A1A18" stroke-width="1"/><rect x="436" y="182" width="60" height="14" fill="none" stroke="#1A1A18" stroke-width="0.9"/><line x1="451" y1="182" x2="451" y2="196" stroke="#1A1A18" stroke-width="0.9"/><line x1="466" y1="182" x2="466" y2="196" stroke="#1A1A18" stroke-width="0.9"/><line x1="481" y1="182" x2="481" y2="196" stroke="#1A1A18" stroke-width="0.9"/><polygon points="485,248 362,538" fill="none" stroke="#1A1A18" stroke-width="1.2" stroke-dasharray="6 4"/><text x="200" y="60" font-family="Helvetica" font-size="11" fill="#1A1A18" text-anchor="middle">Sittebenk</text><text x="435" y="108" font-family="Helvetica" font-size="11" fill="#1A1A18" text-anchor="middle">Kjøkken</text><text x="405" y="415" font-family="Helvetica" font-size="11" fill="#1A1A18" text-anchor="middle" transform="rotate(-67 405 415)">Hems</text><g font-family="Helvetica" fill="#1A1A18" text-anchor="middle"><text x="320" y="330" font-size="13">Stue/sov</text><text x="320" y="347" font-size="10" opacity="0.65">19,8 m²</text></g><g font-family="Helvetica" fill="#1A1A18" text-anchor="middle"><text x="430" y="430" font-size="13">Gang</text><text x="430" y="447" font-size="10" opacity="0.65">5,3 m²</text></g><g font-family="Helvetica" fill="#1A1A18" text-anchor="middle"><text x="720" y="600" font-size="13">Bad</text><text x="720" y="617" font-size="10" opacity="0.65">4,2 m²</text></g><g font-family="Helvetica" fill="#1A1A18" text-anchor="middle"><text x="597" y="88" font-size="13">BK</text><text x="597" y="105" font-size="10" opacity="0.65">2,3 m²</text></g></svg>